<svg width="206" height="206" viewBox="0 0 206 206" fill="none" xmlns="http://www.w3.org/2000/svg">
<mask id="mask0_892_637" style="mask-type:alpha" maskUnits="userSpaceOnUse" x="0" y="0" width="206" height="206">
<rect width="206" height="206" fill="#D9D9D9"/>
</mask>
<g mask="url(#mask0_892_637)">
<rect width="206" height="206" fill="#C8B8FF"/>
</g>
<path d="M44.8876 86.1264H159.605V150.317H44.8876V86.1264Z" fill="#F6F6F6"/>
<path d="M100.645 85.6813L94.9559 85.7188C94.5579 83.6759 93.1719 83.2964 91.313 83.3011C77.7342 83.3479 64.1554 83.3292 50.5766 83.3292H47.8281C47.8281 76.8773 47.7204 70.5801 47.8796 64.2875C47.9451 61.8745 50.1552 60.0987 52.6368 59.916C53.5733 59.8457 54.5098 59.916 55.7459 59.916C55.7459 61.2794 55.6991 62.5773 55.7459 63.8752C55.8025 65.8073 56.6027 67.6429 57.9795 68.9987C59.3562 70.3546 61.2031 71.126 63.1347 71.1517C65.0688 71.1686 66.9346 70.4362 68.3414 69.1079C69.7482 67.7796 70.5872 65.9582 70.6826 64.0251C70.7622 62.7225 70.6826 61.4153 70.6826 60.019H95.588C95.588 61.2794 95.5552 62.432 95.588 63.5847C95.7238 67.9421 99.0108 71.2079 103.183 71.1517C107.261 71.1002 110.436 67.8718 110.548 63.6127C110.576 62.4601 110.548 61.3075 110.548 60.0284H135.388C135.388 61.2607 135.36 62.4086 135.388 63.5565C135.51 67.9187 138.778 71.1939 142.95 71.1517C147.033 71.1142 150.231 67.8719 150.353 63.655C150.385 62.4976 150.353 61.3357 150.353 60.2065C155.897 59.2694 158.313 61.256 158.313 66.6537C158.313 72.0513 158.313 77.5754 158.313 83.3573H155.751C142.093 83.3573 128.439 83.3573 114.786 83.3292C112.913 83.3292 111.541 83.7041 111.138 85.7423L105.454 85.7094C104.648 84.9316 103.848 83.5494 103.042 83.5447C102.237 83.5401 101.45 84.9036 100.645 85.6813Z" fill="#F4727E"/>
<path d="M158.214 152.838C158.214 156.418 156.257 158.311 152.212 158.311H82.9129C73.0799 158.311 63.247 158.311 53.4141 158.311C49.7947 158.311 47.8702 156.249 47.8936 152.932C50.5813 153.18 53.2877 153.639 55.9988 153.644C87.9136 153.694 119.83 153.694 151.748 153.644C153.888 153.63 156.018 153.119 158.214 152.838Z" fill="#F6F6F6"/>
<path d="M66.0143 57.2405C66.0143 59.2646 66.0143 61.2888 66.0143 63.3316C66.0143 65.1449 65.12 66.3959 63.247 66.3959C61.3741 66.3959 60.4751 65.1824 60.4657 63.3551C60.4657 59.1381 60.4376 54.954 60.4657 50.7511C60.4657 48.9098 61.4724 47.7524 63.3313 47.804C65.0731 47.8461 65.9628 49.0175 65.9956 50.7277C66.0471 52.883 66.0143 55.0618 66.0143 57.2405Z" fill="#F6F6F6"/>
<path d="M105.852 57.2171C105.852 59.2412 105.852 61.2653 105.852 63.2848C105.852 65.1215 104.981 66.3491 103.117 66.3725C101.254 66.3959 100.308 65.173 100.308 63.3551C100.275 59.1382 100.266 54.9493 100.308 50.7512C100.308 48.9285 101.296 47.7244 103.159 47.7806C105.023 47.8368 105.856 49.0878 105.852 50.9151C105.847 53.0189 105.852 55.118 105.852 57.2171Z" fill="#F6F6F6"/>
<path d="M140.094 57.0671C140.094 55.043 140.094 53.0189 140.094 50.976C140.094 49.0644 140.95 47.7384 142.95 47.7665C144.823 47.7665 145.652 49.0691 145.656 50.887C145.656 55.0102 145.656 59.1335 145.656 63.2567C145.656 65.0746 144.804 66.3256 142.931 66.3538C141.058 66.3819 140.145 65.173 140.122 63.3457C140.07 61.2653 140.098 59.1662 140.094 57.0671Z" fill="#F6F6F6"/>
<path d="M100.645 85.6813C101.45 84.9036 102.251 83.5166 103.056 83.5166C103.862 83.5166 104.662 84.9223 105.468 85.6813C104.662 86.4544 103.862 87.8319 103.056 87.8319C102.251 87.8319 101.45 86.4544 100.645 85.6813Z" fill="#343434"/>
<path d="M55.7551 55.1453C55.7551 53.3882 55.7036 51.8373 55.7551 50.2864C55.8141 48.3551 56.616 46.5212 57.9935 45.1672C59.371 43.8132 61.2178 43.0437 63.1485 43.0193C65.0811 43.0048 66.9445 43.7382 68.3493 45.0663C69.7541 46.3944 70.5917 48.2143 70.6871 50.1458C70.7808 51.7623 70.6871 53.3882 70.6871 55.1031H95.5878C95.5878 53.51 95.5363 51.9685 95.5878 50.4176C95.7564 46.2007 99.0106 42.9911 103.08 43.0005C107.149 43.0099 110.398 46.2194 110.524 50.4504C110.567 51.9263 110.524 53.4023 110.524 55.0328H135.388C135.388 53.585 135.355 52.0528 135.388 50.5254C135.509 46.2757 138.698 43.0286 142.776 43.0005C146.962 42.9536 150.235 46.2147 150.348 50.5722C150.381 52.0388 150.348 53.5054 150.348 55.0563C152.033 55.1687 153.625 55.1031 155.091 55.4077C159.881 56.3822 162.971 60.2805 162.985 65.3361C163.018 76.1924 162.985 87.0486 162.985 97.9048C162.985 115.95 162.985 133.994 162.985 152.036C162.985 159.064 159.024 163 151.935 163H54.0742C47.0226 163 43.0894 159.055 43.0894 151.97C43.0894 123.539 43.2205 95.1029 43.0004 66.6949C42.9442 58.9452 48.4647 54.4658 54.5518 55.1921C54.9535 55.2052 55.3556 55.1896 55.7551 55.1453ZM94.9557 85.7179C94.4875 87.5921 93.2747 88.0607 91.4767 88.0607C77.7434 88.0138 64.0148 88.0607 50.2721 88.0607H47.7717C47.7717 106.418 47.7717 124.453 47.7717 142.487C47.7717 147.205 49.551 148.995 54.2427 149H151.856C156.538 149 158.322 147.201 158.322 142.482C158.322 125.071 158.322 107.66 158.322 90.2488V88.0607H155.821C142.088 88.0607 100.265 88.0372 86.5228 88.0607C84.7201 88.0607 83.4886 87.5921 83.0438 85.7179C83.4418 83.6751 84.8231 83.2955 86.6867 83.3002C100.34 83.3471 142.088 83.3283 155.747 83.3283H158.331C158.331 77.5465 158.331 72.0832 158.331 66.6246C158.331 61.1661 155.915 59.2216 150.371 60.1774C150.371 61.3066 150.399 62.4686 150.371 63.6259C150.249 67.8429 147.051 71.1227 142.968 71.1227C138.796 71.1649 135.528 67.8897 135.406 63.5276C135.374 62.3796 135.406 61.2317 135.406 59.9994H110.571C110.571 61.2785 110.595 62.4312 110.571 63.5838C110.459 67.8335 107.294 71.0805 103.206 71.1227C99.0153 71.193 95.7283 67.9131 95.5878 63.5697C95.5503 62.4171 95.5878 61.2645 95.5878 60.0041H70.7152C70.7152 61.4097 70.7808 62.7076 70.7152 64.0102C70.6198 65.9433 69.7809 67.7647 68.374 69.093C66.9672 70.4213 65.1014 71.1536 63.1673 71.1368C61.2374 71.1086 59.3928 70.3363 58.0181 68.9806C56.6433 67.625 55.8444 65.7908 55.7879 63.8602C55.7317 62.5623 55.7879 61.2645 55.7879 59.901C54.5424 59.901 53.6059 59.8448 52.6788 59.901C50.1972 60.0837 47.9965 61.8595 47.9216 64.2725C47.7624 70.5651 47.8701 76.8624 47.8701 83.3143H50.6139C64.1927 83.3143 77.7715 83.3143 91.3503 83.2862C93.1717 83.2956 94.5577 83.6751 94.9557 85.7179ZM158.214 152.837C156.018 153.118 153.888 153.629 151.752 153.629C119.835 153.679 87.9181 153.679 56.0033 153.629C53.2922 153.629 50.5858 153.161 47.8982 152.917C47.8747 156.234 49.7992 158.286 53.4186 158.296C63.2516 158.329 73.0845 158.296 82.9174 158.296H152.216C156.257 158.31 158.228 156.417 158.214 152.837ZM66.0141 57.2537C66.0141 55.075 66.0469 52.8962 66.0141 50.6941C65.9814 48.9839 65.0777 47.8125 63.3499 47.7703C61.4769 47.7188 60.4983 48.8761 60.4843 50.7175C60.4468 54.9344 60.4562 59.1185 60.4843 63.3214C60.4843 65.1487 61.4208 66.3669 63.2656 66.3622C65.1104 66.3575 66.0095 65.1113 66.0329 63.298C66.0375 61.2879 66.0141 59.2638 66.0141 57.2396V57.2537ZM105.852 57.2537C105.852 55.1546 105.852 53.0368 105.852 50.9518C105.852 49.1244 105.027 47.8734 103.159 47.8172C101.291 47.7609 100.35 48.9651 100.308 50.7877C100.261 55.0047 100.27 59.1888 100.308 63.3917C100.308 65.2096 101.244 66.4326 103.117 66.4091C104.99 66.3857 105.847 65.1581 105.852 63.3214C105.856 61.2644 105.852 59.2404 105.852 57.2162V57.2537ZM140.098 57.1038C140.098 59.2029 140.07 61.3207 140.098 63.401C140.131 65.2284 141.035 66.4372 142.908 66.4091C144.78 66.381 145.628 65.13 145.633 63.312C145.633 59.1888 145.633 55.0656 145.633 50.9424C145.633 49.1244 144.795 47.8453 142.926 47.8219C140.927 47.7938 140.075 49.1197 140.07 51.0314C140.07 53.0305 140.079 55.0422 140.098 57.0663V57.1038Z" fill="#343434"/>
<mask id="path-4-outside-1_892_637" maskUnits="userSpaceOnUse" x="82" y="94" width="62" height="49" fill="black">
<rect fill="white" x="82" y="94" width="62" height="49"/>
<path fill-rule="evenodd" clip-rule="evenodd" d="M104.295 139.748C102.482 140.198 100.483 139.657 99.1532 138.175L86.315 123.868C84.4085 121.743 84.5973 118.489 86.7367 116.599C88.8761 114.709 92.1559 114.899 94.0625 117.024L103.327 127.348L131.126 98.5851C133.11 96.5331 136.394 96.4644 138.461 98.4316C140.528 100.399 140.597 103.657 138.613 105.709L107.178 138.234C106.375 139.065 105.358 139.571 104.295 139.748Z"/>
</mask>
<path fill-rule="evenodd" clip-rule="evenodd" d="M104.295 139.748C102.482 140.198 100.483 139.657 99.1532 138.175L86.315 123.868C84.4085 121.743 84.5973 118.489 86.7367 116.599C88.8761 114.709 92.1559 114.899 94.0625 117.024L103.327 127.348L131.126 98.5851C133.11 96.5331 136.394 96.4644 138.461 98.4316C140.528 100.399 140.597 103.657 138.613 105.709L107.178 138.234C106.375 139.065 105.358 139.571 104.295 139.748Z" fill="#8DC36E"/>
<path fill-rule="evenodd" clip-rule="evenodd" d="M104.295 139.748C102.482 140.198 100.483 139.657 99.1532 138.175L86.315 123.868C84.4085 121.743 84.5973 118.489 86.7367 116.599C88.8761 114.709 92.1559 114.899 94.0625 117.024L103.327 127.348L131.126 98.5851C133.11 96.5331 136.394 96.4644 138.461 98.4316C140.528 100.399 140.597 103.657 138.613 105.709L107.178 138.234C106.375 139.065 105.358 139.571 104.295 139.748Z" fill="#8DC36E"/>
<path fill-rule="evenodd" clip-rule="evenodd" d="M104.295 139.748C102.482 140.198 100.483 139.657 99.1532 138.175L86.315 123.868C84.4085 121.743 84.5973 118.489 86.7367 116.599C88.8761 114.709 92.1559 114.899 94.0625 117.024L103.327 127.348L131.126 98.5851C133.11 96.5331 136.394 96.4644 138.461 98.4316C140.528 100.399 140.597 103.657 138.613 105.709L107.178 138.234C106.375 139.065 105.358 139.571 104.295 139.748Z" fill="#8DC36E"/>
<path d="M104.295 139.748L103.803 136.788L103.687 136.808L103.572 136.836L104.295 139.748ZM99.1532 138.175L96.9204 140.179L96.9204 140.179L99.1532 138.175ZM86.315 123.868L88.5479 121.864L88.5479 121.864L86.315 123.868ZM86.7367 116.599L88.7229 118.847L88.7229 118.847L86.7367 116.599ZM94.0625 117.024L96.2953 115.02L96.2953 115.02L94.0625 117.024ZM103.327 127.348L101.094 129.352L103.245 131.749L105.484 129.433L103.327 127.348ZM131.126 98.5851L133.284 100.67L133.284 100.67L131.126 98.5851ZM138.613 105.709L140.77 107.794L140.77 107.794L138.613 105.709ZM107.178 138.234L105.021 136.149L105.021 136.149L107.178 138.234ZM103.572 136.836C102.789 137.03 101.943 136.792 101.386 136.171L96.9204 140.179C99.0237 142.522 102.175 143.365 105.019 142.659L103.572 136.836ZM101.386 136.171L88.5479 121.864L84.0822 125.872L96.9204 140.179L101.386 136.171ZM88.5479 121.864C87.754 120.98 87.832 119.634 88.7229 118.847L84.7505 114.351C81.3625 117.343 81.063 122.507 84.0822 125.872L88.5479 121.864ZM88.7229 118.847C89.6274 118.048 91.0236 118.129 91.8296 119.027L96.2953 115.02C93.2883 111.669 88.1247 111.37 84.7504 114.351L88.7229 118.847ZM91.8296 119.027L101.094 129.352L105.56 125.344L96.2953 115.02L91.8296 119.027ZM105.484 129.433L133.284 100.67L128.969 96.5003L101.17 125.263L105.484 129.433ZM133.284 100.67C134.122 99.8028 135.519 99.7735 136.393 100.605L140.529 96.2582C137.268 93.1552 132.098 93.2635 128.969 96.5003L133.284 100.67ZM136.393 100.605C137.254 101.424 137.282 102.77 136.456 103.624L140.77 107.794C143.912 104.544 143.803 99.3739 140.529 96.2582L136.393 100.605ZM136.456 103.624L105.021 136.149L109.335 140.319L140.77 107.794L136.456 103.624ZM105.021 136.149C104.681 136.5 104.255 136.713 103.803 136.788L104.788 142.707C106.461 142.428 108.068 141.629 109.335 140.319L105.021 136.149Z" fill="#343434" mask="url(#path-4-outside-1_892_637)"/>
<mask id="path-6-outside-2_892_637" maskUnits="userSpaceOnUse" x="72" y="94" width="62" height="49" fill="black">
<rect fill="white" x="72" y="94" width="62" height="49"/>
<path fill-rule="evenodd" clip-rule="evenodd" d="M94.2955 139.748C92.482 140.198 90.4834 139.657 89.1532 138.175L76.315 123.868C74.4085 121.743 74.5973 118.489 76.7367 116.599C78.8761 114.709 82.1559 114.899 84.0625 117.024L93.3268 127.348L121.126 98.5851C123.11 96.5331 126.394 96.4644 128.461 98.4316C130.528 100.399 130.597 103.657 128.613 105.709L97.1778 138.234C96.3746 139.065 95.3581 139.571 94.2955 139.748Z"/>
</mask>
<path fill-rule="evenodd" clip-rule="evenodd" d="M94.2955 139.748C92.482 140.198 90.4834 139.657 89.1532 138.175L76.315 123.868C74.4085 121.743 74.5973 118.489 76.7367 116.599C78.8761 114.709 82.1559 114.899 84.0625 117.024L93.3268 127.348L121.126 98.5851C123.11 96.5331 126.394 96.4644 128.461 98.4316C130.528 100.399 130.597 103.657 128.613 105.709L97.1778 138.234C96.3746 139.065 95.3581 139.571 94.2955 139.748Z" fill="#8DC36E"/>
<path fill-rule="evenodd" clip-rule="evenodd" d="M94.2955 139.748C92.482 140.198 90.4834 139.657 89.1532 138.175L76.315 123.868C74.4085 121.743 74.5973 118.489 76.7367 116.599C78.8761 114.709 82.1559 114.899 84.0625 117.024L93.3268 127.348L121.126 98.5851C123.11 96.5331 126.394 96.4644 128.461 98.4316C130.528 100.399 130.597 103.657 128.613 105.709L97.1778 138.234C96.3746 139.065 95.3581 139.571 94.2955 139.748Z" fill="#8DC36E"/>
<path fill-rule="evenodd" clip-rule="evenodd" d="M94.2955 139.748C92.482 140.198 90.4834 139.657 89.1532 138.175L76.315 123.868C74.4085 121.743 74.5973 118.489 76.7367 116.599C78.8761 114.709 82.1559 114.899 84.0625 117.024L93.3268 127.348L121.126 98.5851C123.11 96.5331 126.394 96.4644 128.461 98.4316C130.528 100.399 130.597 103.657 128.613 105.709L97.1778 138.234C96.3746 139.065 95.3581 139.571 94.2955 139.748Z" fill="#8DC36E"/>
<path d="M94.2955 139.748L93.8026 136.788L93.6866 136.808L93.5724 136.836L94.2955 139.748ZM89.1532 138.175L86.9204 140.179L86.9204 140.179L89.1532 138.175ZM76.315 123.868L78.5479 121.864L78.5479 121.864L76.315 123.868ZM76.7367 116.599L78.7229 118.847L78.7229 118.847L76.7367 116.599ZM84.0625 117.024L86.2953 115.02L86.2953 115.02L84.0625 117.024ZM93.3268 127.348L91.094 129.352L93.2453 131.749L95.4839 129.433L93.3268 127.348ZM121.126 98.5851L123.284 100.67L123.284 100.67L121.126 98.5851ZM128.613 105.709L130.77 107.794L130.77 107.794L128.613 105.709ZM97.1778 138.234L95.0207 136.149L95.0207 136.149L97.1778 138.234ZM93.5724 136.836C92.7895 137.03 91.9431 136.792 91.3861 136.171L86.9204 140.179C89.0237 142.522 92.1746 143.365 95.0186 142.659L93.5724 136.836ZM91.3861 136.171L78.5479 121.864L74.0822 125.872L86.9204 140.179L91.3861 136.171ZM78.5479 121.864C77.754 120.98 77.832 119.634 78.7229 118.847L74.7505 114.351C71.3625 117.343 71.063 122.507 74.0822 125.872L78.5479 121.864ZM78.7229 118.847C79.6274 118.048 81.0236 118.129 81.8296 119.027L86.2953 115.02C83.2883 111.669 78.1247 111.37 74.7504 114.351L78.7229 118.847ZM81.8296 119.027L91.094 129.352L95.5596 125.344L86.2953 115.02L81.8296 119.027ZM95.4839 129.433L123.284 100.67L118.969 96.5003L91.1697 125.263L95.4839 129.433ZM123.284 100.67C124.122 99.8028 125.519 99.7735 126.393 100.605L130.529 96.2582C127.268 93.1552 122.098 93.2635 118.969 96.5003L123.284 100.67ZM126.393 100.605C127.254 101.424 127.282 102.77 126.456 103.624L130.77 107.794C133.912 104.544 133.803 99.3739 130.529 96.2582L126.393 100.605ZM126.456 103.624L95.0207 136.149L99.3349 140.319L130.77 107.794L126.456 103.624ZM95.0207 136.149C94.681 136.5 94.2554 136.713 93.8026 136.788L94.7883 142.707C96.4607 142.428 98.0681 141.629 99.3349 140.319L95.0207 136.149Z" fill="#343434" mask="url(#path-6-outside-2_892_637)"/>
<mask id="path-8-outside-3_892_637" maskUnits="userSpaceOnUse" x="62" y="94" width="62" height="49" fill="black">
<rect fill="white" x="62" y="94" width="62" height="49"/>
<path fill-rule="evenodd" clip-rule="evenodd" d="M84.2955 139.748C82.482 140.198 80.4834 139.657 79.1532 138.175L66.315 123.868C64.4085 121.743 64.5973 118.489 66.7367 116.599C68.8761 114.709 72.1559 114.899 74.0625 117.024L83.3268 127.348L111.126 98.5851C113.11 96.5331 116.394 96.4644 118.461 98.4316C120.528 100.399 120.597 103.657 118.613 105.709L87.1778 138.234C86.3746 139.065 85.3581 139.571 84.2955 139.748Z"/>
</mask>
<path fill-rule="evenodd" clip-rule="evenodd" d="M84.2955 139.748C82.482 140.198 80.4834 139.657 79.1532 138.175L66.315 123.868C64.4085 121.743 64.5973 118.489 66.7367 116.599C68.8761 114.709 72.1559 114.899 74.0625 117.024L83.3268 127.348L111.126 98.5851C113.11 96.5331 116.394 96.4644 118.461 98.4316C120.528 100.399 120.597 103.657 118.613 105.709L87.1778 138.234C86.3746 139.065 85.3581 139.571 84.2955 139.748Z" fill="#8DC36E"/>
<path fill-rule="evenodd" clip-rule="evenodd" d="M84.2955 139.748C82.482 140.198 80.4834 139.657 79.1532 138.175L66.315 123.868C64.4085 121.743 64.5973 118.489 66.7367 116.599C68.8761 114.709 72.1559 114.899 74.0625 117.024L83.3268 127.348L111.126 98.5851C113.11 96.5331 116.394 96.4644 118.461 98.4316C120.528 100.399 120.597 103.657 118.613 105.709L87.1778 138.234C86.3746 139.065 85.3581 139.571 84.2955 139.748Z" fill="#8DC36E"/>
<path fill-rule="evenodd" clip-rule="evenodd" d="M84.2955 139.748C82.482 140.198 80.4834 139.657 79.1532 138.175L66.315 123.868C64.4085 121.743 64.5973 118.489 66.7367 116.599C68.8761 114.709 72.1559 114.899 74.0625 117.024L83.3268 127.348L111.126 98.5851C113.11 96.5331 116.394 96.4644 118.461 98.4316C120.528 100.399 120.597 103.657 118.613 105.709L87.1778 138.234C86.3746 139.065 85.3581 139.571 84.2955 139.748Z" fill="#8DC36E"/>
<path d="M84.2955 139.748L83.8026 136.788L83.6866 136.808L83.5724 136.836L84.2955 139.748ZM79.1532 138.175L76.9204 140.179L76.9204 140.179L79.1532 138.175ZM66.315 123.868L68.5479 121.864L68.5479 121.864L66.315 123.868ZM66.7367 116.599L68.7229 118.847L68.7229 118.847L66.7367 116.599ZM74.0625 117.024L76.2953 115.02L76.2953 115.02L74.0625 117.024ZM83.3268 127.348L81.094 129.352L83.2453 131.749L85.4839 129.433L83.3268 127.348ZM111.126 98.5851L113.284 100.67L113.284 100.67L111.126 98.5851ZM118.613 105.709L120.77 107.794L120.77 107.794L118.613 105.709ZM87.1778 138.234L85.0207 136.149L85.0207 136.149L87.1778 138.234ZM83.5724 136.836C82.7895 137.03 81.9431 136.792 81.3861 136.171L76.9204 140.179C79.0237 142.522 82.1746 143.365 85.0186 142.659L83.5724 136.836ZM81.3861 136.171L68.5479 121.864L64.0822 125.872L76.9204 140.179L81.3861 136.171ZM68.5479 121.864C67.754 120.98 67.832 119.634 68.7229 118.847L64.7505 114.351C61.3625 117.343 61.063 122.507 64.0822 125.872L68.5479 121.864ZM68.7229 118.847C69.6274 118.048 71.0236 118.129 71.8296 119.027L76.2953 115.02C73.2883 111.669 68.1247 111.37 64.7504 114.351L68.7229 118.847ZM71.8296 119.027L81.094 129.352L85.5596 125.344L76.2953 115.02L71.8296 119.027ZM85.4839 129.433L113.284 100.67L108.969 96.5003L81.1697 125.263L85.4839 129.433ZM113.284 100.67C114.122 99.8028 115.519 99.7735 116.393 100.605L120.529 96.2582C117.268 93.1552 112.098 93.2635 108.969 96.5003L113.284 100.67ZM116.393 100.605C117.254 101.424 117.282 102.77 116.456 103.624L120.77 107.794C123.912 104.544 123.803 99.3739 120.529 96.2582L116.393 100.605ZM116.456 103.624L85.0207 136.149L89.3349 140.319L120.77 107.794L116.456 103.624ZM85.0207 136.149C84.681 136.5 84.2554 136.713 83.8026 136.788L84.7883 142.707C86.4607 142.428 88.0681 141.629 89.3349 140.319L85.0207 136.149Z" fill="#343434" mask="url(#path-8-outside-3_892_637)"/>
</svg>
