<svg width="22" height="40" viewBox="0 0 22 40" fill="none" xmlns="http://www.w3.org/2000/svg">
<path d="M2.35524 15.9049H5.27339V2.31748C5.27512 1.76208 5.49697 1.23001 5.89032 0.837896C6.28367 0.445778 6.81643 0.225594 7.37183 0.225596H14.2901C14.5654 0.224733 14.8381 0.278205 15.0927 0.382946C15.3472 0.487686 15.5786 0.641637 15.7736 0.835972C15.9685 1.03031 16.1232 1.26121 16.2287 1.51544C16.3343 1.76966 16.3886 2.04222 16.3886 2.31748V15.9049H19.3133C19.7568 15.9038 20.1914 16.0294 20.5659 16.2669C20.9405 16.5044 21.2394 16.844 21.4274 17.2456C21.6155 17.6473 21.685 18.0943 21.6276 18.5341C21.5702 18.9739 21.3884 19.3881 21.1035 19.728L12.6245 29.8858C12.4054 30.1476 12.1315 30.3582 11.8222 30.5026C11.5129 30.6471 11.1757 30.722 10.8343 30.722C10.4929 30.722 10.1556 30.6471 9.84632 30.5026C9.53701 30.3582 9.26314 30.1476 9.04403 29.8858L0.558442 19.728C0.273234 19.3877 0.0913257 18.9728 0.0341767 18.5324C-0.0229724 18.0921 0.0470227 17.6445 0.235905 17.2427C0.424787 16.8408 0.724675 16.5013 1.10019 16.2642C1.4757 16.0272 1.91118 15.9025 2.35524 15.9049Z" fill="#000000"/>
<path d="M0.00756836 38.4198V36.603C0.0093013 36.3662 0.135117 36.1396 0.357523 35.9726C0.579928 35.8056 0.88084 35.7119 1.1945 35.7119H20.474C20.7876 35.7119 21.0885 35.8056 21.3109 35.9726C21.5334 36.1396 21.6592 36.3662 21.6609 36.603V38.4198C21.6609 38.6579 21.5361 38.8863 21.3137 39.0552C21.0913 39.224 20.7894 39.3195 20.474 39.3208H1.1945C0.879105 39.3195 0.577219 39.224 0.354812 39.0552C0.132406 38.8863 0.0075636 38.6579 0.00756836 38.4198Z" fill="#000000"/>
</svg>
