<svg width="84" height="57" viewBox="0 0 84 57" fill="none" xmlns="http://www.w3.org/2000/svg">
<path fill-rule="evenodd" clip-rule="evenodd" d="M6.25537 0C2.80054 0 0 3.13379 0 7V50C0 53.8662 2.80054 57 6.25537 57H77.7446C81.1995 57 84 53.8662 84 50V7C84 3.13379 81.1995 0 77.7446 0H6.25537ZM55 29.7319C56.3333 28.9619 56.3333 27.0376 55 26.2676L37 15.8755C35.6667 15.1055 34 16.0679 34 17.6074V38.3921C34 39.9316 35.6667 40.894 37 40.124L55 29.7319ZM8 7C6.89551 7 6 7.89551 6 9V13C6 14.1045 6.89551 15 8 15H13C14.1045 15 15 14.1045 15 13V9C15 7.89551 14.1045 7 13 7H8ZM8 25C6.89551 25 6 25.8955 6 27V31C6 32.1045 6.89551 33 8 33H13C14.1045 33 15 32.1045 15 31V27C15 25.8955 14.1045 25 13 25H8ZM6 45C6 43.8955 6.89551 43 8 43H13C14.1045 43 15 43.8955 15 45V49C15 50.1045 14.1045 51 13 51H8C6.89551 51 6 50.1045 6 49V45ZM69 9C69 7.89551 69.8955 7 71 7H76C77.1045 7 78 7.89551 78 9V13C78 14.1045 77.1045 15 76 15H71C69.8955 15 69 14.1045 69 13V9ZM69 27C69 25.8955 69.8955 25 71 25H76C77.1045 25 78 25.8955 78 27V31C78 32.1045 77.1045 33 76 33H71C69.8955 33 69 32.1045 69 31V27ZM71 43C69.8955 43 69 43.8955 69 45V49C69 50.1045 69.8955 51 71 51H76C77.1045 51 78 50.1045 78 49V45C78 43.8955 77.1045 43 76 43H71Z" fill="white"/>
</svg>
